<svg id="Layer_1" data-name="Layer 1" xmlns="http://www.w3.org/2000/svg" viewBox="0 0 85.37 98">
  <title>logo</title>
  <g>
    <g>
      <path d="M50.42,3.73l5.39,18.65c-.15.26-15,38.67-15,38.67l-8.12-21L43.14,3.73a3.79,3.79,0,0,1,7.28,0Z" transform="translate(-1.31 -1)" fill="#fff"/>
      <path d="M86,81.08a3.75,3.75,0,0,1-3.13,1.65H49L42.82,66.66,59,25a3.75,3.75,0,0,1,1-1.46,3.88,3.88,0,0,1,2.55-1A3.73,3.73,0,0,1,66.05,25l20.37,52.6A3.74,3.74,0,0,1,86,81.08Z" transform="translate(-1.31 -1)" fill="#fff"/>
    </g>
    <path d="M49,97.35A3.77,3.77,0,0,1,45.87,99H5.11A3.77,3.77,0,0,1,2,97.35a3.7,3.7,0,0,1-.39-3.53L22,41.23a3.8,3.8,0,0,1,6.63-.82,3.57,3.57,0,0,1,.44.82L49.42,93.82A3.79,3.79,0,0,1,49,97.35Z" transform="translate(-1.31 -1)" fill="#fff"/>
  </g>
</svg>
